<?xml version="1.0" encoding="utf-8"?>
<!-- Generator: Adobe Illustrator 20.1.0, SVG Export Plug-In . SVG Version: 6.00 Build 0)  -->
<svg version="1.1" id="Layer_1" xmlns="http://www.w3.org/2000/svg" xmlns:xlink="http://www.w3.org/1999/xlink" x="0px" y="0px"
	 viewBox="0 0 527 66" style="enable-background:new 0 0 527 66;" xml:space="preserve">
<style type="text/css">
	.st0{fill:#00A651;}
</style>
<g>
	<g>
		<path class="st0" d="M74.5,47.6h-1.3c-12.3,0-24.1-0.2-24.2-0.2l-1.3,0L47.7,46c0-0.5-0.8-12.3,5.1-16.3c2.8-1.9,6.4-1.7,10.7,0.4
			c0.7,0.3,1,1.2,0.6,1.9c-0.3,0.7-1.2,1-1.9,0.6c-3.4-1.6-6.1-1.8-7.9-0.6c-3.4,2.3-4,8.9-4,12.5c3.3,0.1,12.2,0.2,21.6,0.2
			c0.4-6.2-1-11.3-4.4-15.3c-6.6-7.7-18.7-9-23.6-9.1l-1.3-0.1l-0.2-1.1c-0.8-4.4-3.4-4.9-4.3-5c-0.1,0-0.2,0-0.3,0
			c-3.2-0.2-4.2,2.7-4.8,5.8c-0.1,0.4-0.1,0.8-0.2,1l-0.2,0.6l-0.6,0.2c-9.5,3.9-10,5.1-10.3,6.6c0,0.5,0.2,1,0.6,1.5
			c2.2,2.6,9.6,3.4,12.2,3.6c0.8,0,1.4,0.7,1.3,1.5c0,0.8-0.7,1.3-1.5,1.3c-1.1-0.1-10.7-0.6-14.1-4.5c-0.9-1.1-1.4-2.3-1.3-3.6
			l0-0.2c0.7-3.1,2.3-4.6,11.3-8.4c0,0,0,0,0,0c0.4-2.1,1.5-8.6,7.9-8.1l0.6,0.1c3.8,0.8,5.4,3.6,6.1,6.1c5.7,0.3,17.8,2,24.7,10.1
			c4.1,4.8,5.8,11.1,5,18.7L74.5,47.6z"/>
	</g>
	<g>
		<path class="st0" d="M43.4,47.1c-0.1,0-5.3,0-11.4-0.2c-0.6,0-1.1-0.4-1.3-1c-0.2-0.6,0-1.2,0.5-1.5c5.6-4.1,12.6-14.8,12.7-14.9
			c0.4-0.6,1.3-0.8,1.9-0.4c0.6,0.4,0.8,1.3,0.4,1.9c-0.3,0.4-5.3,8.2-10.5,13.2c4.4,0.1,7.6,0.1,7.7,0.1c0.8,0,1.4,0.6,1.4,1.4
			C44.8,46.5,44.2,47.1,43.4,47.1z"/>
	</g>
	<g>
		<circle class="st0" cx="38" cy="19.6" r="1.6"/>
	</g>
</g>
<g>
	<path class="st0" d="M86.6,20h12.3c2,0,3.7,0.3,5,0.9c2.5,1.2,3.7,3.3,3.7,6.4c0,1.6-0.3,2.9-1,4c-0.7,1-1.6,1.9-2.8,2.5
		c1.1,0.4,1.9,1,2.4,1.7c0.5,0.7,0.8,1.8,0.9,3.4l0.1,3.6c0,1,0.1,1.8,0.3,2.3c0.2,0.9,0.6,1.4,1.2,1.7v0.6h-4.5
		c-0.1-0.2-0.2-0.5-0.3-0.9s-0.1-1.1-0.2-2.1l-0.2-4.5c-0.1-1.8-0.7-3-1.9-3.6c-0.7-0.3-1.7-0.5-3.2-0.5h-8.1v11.6h-3.7V20z
		 M98.5,32.4c1.7,0,3-0.3,4-1c1-0.7,1.5-1.9,1.5-3.7c0-1.9-0.7-3.2-2-3.9c-0.7-0.4-1.7-0.6-2.9-0.6h-8.7v9.2H98.5z"/>
	<path class="st0" d="M121.3,20h4.1l9.8,27h-4l-2.8-8.1h-10.6l-2.9,8.1h-3.8L121.3,20z M127.4,36l-4.2-12l-4.3,12H127.4z"/>
	<path class="st0" d="M138.6,20h4.3l13.5,21.9V20h3.5v27h-4.1l-13.7-21.8v21.8h-3.5V20z"/>
	<path class="st0" d="M173.7,20h4.1l9.8,27h-4l-2.8-8.1h-10.6l-2.9,8.1h-3.8L173.7,20z M179.8,36l-4.2-12l-4.3,12H179.8z"/>
	<path class="st0" d="M201.2,20l5.1,22l6.1-22h4l6.1,22l5.1-22h4l-7.1,27h-3.8l-6.2-22.4l-6.3,22.4h-3.8l-7.1-27H201.2z"/>
	<path class="st0" d="M235.3,20h19.6v3.3h-16.1v8.2h14.8v3.1h-14.8v9.2h16.3v3.2h-19.9V20z"/>
	<path class="st0" d="M260,20h11.7c3.2,0,5.5,0.9,6.8,2.8c0.8,1.1,1.2,2.4,1.2,3.9c0,1.7-0.5,3.1-1.5,4.2c-0.5,0.6-1.2,1.1-2.2,1.6
		c1.4,0.5,2.4,1.1,3.1,1.8c1.2,1.2,1.8,2.8,1.8,4.9c0,1.7-0.5,3.3-1.6,4.7c-1.6,2.1-4.3,3.2-7.8,3.2H260V20z M270.4,31.5
		c1.6,0,2.8-0.2,3.6-0.6c1.4-0.7,2-1.9,2-3.6c0-1.8-0.7-3-2.2-3.6c-0.8-0.3-2-0.5-3.6-0.5h-6.6v8.4H270.4z M271.6,44
		c2.3,0,3.9-0.7,4.9-2c0.6-0.8,0.9-1.8,0.9-3c0-2-0.9-3.3-2.7-4c-0.9-0.4-2.2-0.6-3.7-0.6h-7.3V44H271.6z"/>
	<path class="st0" d="M298.1,38.4c0.1,1.5,0.4,2.8,1,3.7c1.2,1.8,3.2,2.7,6.2,2.7c1.3,0,2.5-0.2,3.6-0.6c2.1-0.8,3.2-2.1,3.2-4.1
		c0-1.5-0.4-2.5-1.3-3.1c-0.9-0.6-2.3-1.1-4.2-1.6l-3.5-0.8c-2.3-0.5-4-1.1-4.9-1.8c-1.7-1.1-2.5-2.8-2.5-5.1c0-2.4,0.8-4.4,2.5-6
		c1.6-1.6,4-2.3,7-2.3c2.8,0,5.1,0.7,7,2.1c1.9,1.4,2.9,3.6,2.9,6.6h-3.4c-0.2-1.4-0.6-2.6-1.1-3.3c-1.1-1.4-2.9-2.1-5.5-2.1
		c-2.1,0-3.6,0.5-4.5,1.4c-0.9,0.9-1.4,2-1.4,3.2c0,1.3,0.5,2.3,1.6,2.9c0.7,0.4,2.3,0.9,4.8,1.5l3.7,0.9c1.8,0.4,3.1,1,4.1,1.7
		c1.7,1.3,2.5,3.1,2.5,5.5c0,3-1.1,5.1-3.2,6.4s-4.6,1.9-7.4,1.9c-3.3,0-5.8-0.9-7.7-2.6c-1.9-1.7-2.8-4-2.7-6.9H298.1z"/>
	<path class="st0" d="M343.2,23.9c1.8,2.4,2.7,5.5,2.7,9.2c0,4-1,7.4-3.1,10.1c-2.4,3.1-5.8,4.7-10.3,4.7c-4.2,0-7.4-1.4-9.8-4.1
		c-2.1-2.7-3.2-6-3.2-10.1c0-3.7,0.9-6.8,2.7-9.4c2.3-3.3,5.8-5,10.3-5C337.3,19.3,340.9,20.8,343.2,23.9z M339.9,41.1
		c1.4-2.3,2.2-5,2.2-8c0-3.2-0.8-5.7-2.5-7.7c-1.7-1.9-3.9-2.9-6.8-2.9c-2.8,0-5.1,1-6.8,2.9c-1.8,1.9-2.7,4.8-2.7,8.5
		c0,3,0.8,5.5,2.3,7.6c1.5,2.1,4,3.1,7.4,3.1C336.2,44.6,338.5,43.5,339.9,41.1z"/>
	<path class="st0" d="M350.2,20h3.7v23.8h13.6v3.2h-17.2V20z"/>
	<path class="st0" d="M375.2,20v16.7c0,2,0.4,3.6,1.1,4.9c1.1,2,3,2.9,5.6,2.9c3.1,0,5.3-1.1,6.4-3.2c0.6-1.2,0.9-2.7,0.9-4.7V20
		h3.7v15.2c0,3.3-0.4,5.9-1.3,7.7c-1.7,3.3-4.8,4.9-9.3,4.9s-7.7-1.6-9.3-4.9c-0.9-1.8-1.3-4.4-1.3-7.7V20H375.2z"/>
	<path class="st0" d="M418.1,20v3.2H409v23.8h-3.7V23.3h-9.1V20H418.1z"/>
	<path class="st0" d="M422.3,20h3.7v27h-3.7V20z"/>
	<path class="st0" d="M454.2,23.9c1.8,2.4,2.7,5.5,2.7,9.2c0,4-1,7.4-3.1,10.1c-2.4,3.1-5.8,4.7-10.3,4.7c-4.2,0-7.4-1.4-9.8-4.1
		c-2.1-2.7-3.2-6-3.2-10.1c0-3.7,0.9-6.8,2.7-9.4c2.3-3.3,5.8-5,10.3-5C448.4,19.3,451.9,20.8,454.2,23.9z M451,41.1
		c1.4-2.3,2.2-5,2.2-8c0-3.2-0.8-5.7-2.5-7.7c-1.7-1.9-3.9-2.9-6.8-2.9c-2.8,0-5.1,1-6.8,2.9c-1.8,1.9-2.7,4.8-2.7,8.5
		c0,3,0.8,5.5,2.3,7.6c1.5,2.1,4,3.1,7.4,3.1C447.2,44.6,449.6,43.5,451,41.1z"/>
	<path class="st0" d="M461.3,20h4.3l13.5,21.9V20h3.5v27h-4.1l-13.7-21.8v21.8h-3.5V20z"/>
	<path class="st0" d="M490.9,38.4c0.1,1.5,0.4,2.8,1,3.7c1.2,1.8,3.2,2.7,6.2,2.7c1.3,0,2.5-0.2,3.6-0.6c2.1-0.8,3.2-2.1,3.2-4.1
		c0-1.5-0.4-2.5-1.3-3.1c-0.9-0.6-2.3-1.1-4.2-1.6l-3.5-0.8c-2.3-0.5-4-1.1-4.9-1.8c-1.7-1.1-2.5-2.8-2.5-5.1c0-2.4,0.8-4.4,2.5-6
		c1.6-1.6,4-2.3,7-2.3c2.8,0,5.1,0.7,7,2.1c1.9,1.4,2.9,3.6,2.9,6.6h-3.4c-0.2-1.4-0.6-2.6-1.1-3.3c-1.1-1.4-2.9-2.1-5.5-2.1
		c-2.1,0-3.6,0.5-4.5,1.4c-0.9,0.9-1.4,2-1.4,3.2c0,1.3,0.5,2.3,1.6,2.9c0.7,0.4,2.3,0.9,4.8,1.5l3.7,0.9c1.8,0.4,3.1,1,4.1,1.7
		c1.7,1.3,2.5,3.1,2.5,5.5c0,3-1.1,5.1-3.2,6.4s-4.6,1.9-7.4,1.9c-3.3,0-5.8-0.9-7.7-2.6c-1.9-1.7-2.8-4-2.7-6.9H490.9z"/>
</g>
</svg>
